<svg width="80" height="66" viewBox="0 0 80 66" fill="none" xmlns="http://www.w3.org/2000/svg">
<path d="M40 26.7166C32.8 26.7166 26.9333 20.85 26.9333 13.65C26.9333 6.44998 32.8 0.56665 40 0.56665C47.2 0.56665 53.0667 6.43332 53.0667 13.6333C53.0667 20.8333 47.2 26.7166 40 26.7166ZM40 7.23332C36.4667 7.23332 33.6 10.1 33.6 13.6333C33.6 17.1666 36.4667 20.0333 40 20.0333C43.5333 20.0333 46.4 17.1666 46.4 13.6333C46.4 10.1 43.5333 7.23332 40 7.23332ZM75.8333 65.1666H4.16667C2.93334 65.1666 1.80001 64.4833 1.23334 63.4C0.650006 62.3166 0.716673 61 1.40001 59.9666L17.7333 35.6333C18.35 34.7166 19.3833 34.15 20.5 34.15H27.1V40.8166H22.2833L10.4167 58.5H69.5833L57.7167 40.8333H52.9V34.1666H59.5C60.6167 34.1666 61.65 34.7166 62.2667 35.65L78.6 59.9833C79.2833 61 79.35 62.3166 78.7667 63.4166C78.2 64.4833 77.0667 65.1666 75.8333 65.1666Z" fill="#313131"/>
</svg>
