<svg width="48" height="66" viewBox="0 0 48 66" fill="none" xmlns="http://www.w3.org/2000/svg">
<path d="M37.3333 0.666656H4.00001H3.66667H3.33334C3.00001 0.666656 2.66667 0.99999 2.33334 0.99999C2.33334 0.99999 2.33334 0.99999 2.00001 0.99999C2.00001 0.99999 2.00001 0.99999 1.66667 1.33332C1.66667 1.66666 1.33334 1.99999 1.33334 2.33332C1 2.66666 0.666672 2.99999 0.666672 3.33332C0.666672 3.66666 0.666672 3.99999 0.666672 3.99999V51.6667C0.666672 54.6667 2.33334 57 5.33334 58L28.6667 65.6667C29.3333 66 30 66 30.6667 66C32 66 33.3333 65.6667 34.6667 64.6667C36.3333 63.3333 37.3333 61.3333 37.3333 59.3333V57.3333H40.6667C44.3333 57.3333 47.3333 54.3333 47.3333 50.6667V10.6667C47.3333 4.99999 43 0.666656 37.3333 0.666656ZM30.6667 59.3333L7.33334 51.6667V8.66666L28.3333 15.6667C29.6667 16 30.6667 17.3333 30.6667 18.6667V54V59.3333ZM40.6667 50.6667H37.3333V18.6667C37.3333 14.3333 34.6667 10.6667 30.3333 9.33332L24.6667 7.33332H37.3333C39.3333 7.33332 40.6667 8.66666 40.6667 10.6667V50.6667Z" fill="#313131"/>
</svg>
